<mxfile host="app.diagrams.net" modified="2021-07-24T11:07:17.175Z" agent="5.0 (Windows)" etag="S0m7tOcX3n7126oVWCTZ" version="14.8.5" type="github">
  <diagram id="KxuiyelQ4g_LW83yEsCo" name="Page-1">
    <mxGraphModel dx="1185" dy="636" grid="1" gridSize="10" guides="1" tooltips="1" connect="1" arrows="1" fold="1" page="1" pageScale="1" pageWidth="4681" pageHeight="3300" math="0" shadow="0">
      <root>
        <mxCell id="0" />
        <mxCell id="1" parent="0" />
        <mxCell id="44AiBCDxBOzTBdy34bFM-65" value="One-hot Encoded Sequence in Interaction Region1" style="text;html=1;strokeColor=none;fillColor=none;align=center;verticalAlign=middle;whiteSpace=wrap;rounded=0;fontStyle=1;fontSize=14;" parent="1" vertex="1">
          <mxGeometry x="90" y="258.25" width="160" height="20" as="geometry" />
        </mxCell>
        <mxCell id="44AiBCDxBOzTBdy34bFM-129" value="&lt;div style=&quot;font-size: 14px;&quot;&gt;One-hot Encoded Sequence in Interaction Region2&lt;/div&gt;" style="text;html=1;strokeColor=none;fillColor=none;align=center;verticalAlign=middle;whiteSpace=wrap;rounded=0;fontStyle=1;fontSize=14;" parent="1" vertex="1">
          <mxGeometry x="90" y="407" width="160" height="20" as="geometry" />
        </mxCell>
        <mxCell id="cqIsUIiBQY2y6wm-BXva-219" value="G" style="text;html=1;strokeColor=none;fillColor=none;align=center;verticalAlign=middle;whiteSpace=wrap;rounded=0;fontStyle=1;fontSize=14;" vertex="1" parent="1">
          <mxGeometry x="70" y="197.88" width="40" height="20" as="geometry" />
        </mxCell>
        <mxCell id="cqIsUIiBQY2y6wm-BXva-220" value="T" style="text;html=1;strokeColor=none;fillColor=none;align=center;verticalAlign=middle;whiteSpace=wrap;rounded=0;fontStyle=1;fontSize=14;" vertex="1" parent="1">
          <mxGeometry x="70" y="217.88" width="40" height="20" as="geometry" />
        </mxCell>
        <mxCell id="cqIsUIiBQY2y6wm-BXva-221" value="&lt;div style=&quot;font-size: 14px;&quot;&gt;A&lt;/div&gt;" style="text;html=1;strokeColor=none;fillColor=none;align=center;verticalAlign=middle;whiteSpace=wrap;rounded=0;fontStyle=1;fontSize=14;" vertex="1" parent="1">
          <mxGeometry x="70" y="157.88" width="40" height="20" as="geometry" />
        </mxCell>
        <mxCell id="cqIsUIiBQY2y6wm-BXva-222" value="C" style="text;html=1;strokeColor=none;fillColor=none;align=center;verticalAlign=middle;whiteSpace=wrap;rounded=0;fontStyle=1;fontSize=14;" vertex="1" parent="1">
          <mxGeometry x="70" y="177.88" width="40" height="20" as="geometry" />
        </mxCell>
        <mxCell id="cqIsUIiBQY2y6wm-BXva-223" value="" style="whiteSpace=wrap;html=1;aspect=fixed;fillColor=#dae8fc;strokeColor=#6c8ebf;fontStyle=1;fontSize=14;" vertex="1" parent="1">
          <mxGeometry x="100" y="157.88" width="20" height="20" as="geometry" />
        </mxCell>
        <mxCell id="cqIsUIiBQY2y6wm-BXva-224" value="" style="whiteSpace=wrap;html=1;aspect=fixed;fontStyle=1;fontSize=14;" vertex="1" parent="1">
          <mxGeometry x="120" y="177.88" width="20" height="20" as="geometry" />
        </mxCell>
        <mxCell id="cqIsUIiBQY2y6wm-BXva-225" value="" style="whiteSpace=wrap;html=1;aspect=fixed;fillColor=#ffe6cc;strokeColor=#d79b00;fontStyle=1;fontSize=14;" vertex="1" parent="1">
          <mxGeometry x="120" y="177.88" width="20" height="20" as="geometry" />
        </mxCell>
        <mxCell id="cqIsUIiBQY2y6wm-BXva-226" value="" style="whiteSpace=wrap;html=1;aspect=fixed;fillColor=#ffe6cc;strokeColor=#d79b00;fontStyle=1;fontSize=14;" vertex="1" parent="1">
          <mxGeometry x="140" y="177.88" width="20" height="20" as="geometry" />
        </mxCell>
        <mxCell id="cqIsUIiBQY2y6wm-BXva-227" value="" style="whiteSpace=wrap;html=1;aspect=fixed;fillColor=#e1d5e7;strokeColor=#9673a6;fontStyle=1;fontSize=14;" vertex="1" parent="1">
          <mxGeometry x="160" y="217.88" width="20" height="20" as="geometry" />
        </mxCell>
        <mxCell id="cqIsUIiBQY2y6wm-BXva-228" value="" style="whiteSpace=wrap;html=1;aspect=fixed;fillColor=#f8cecc;strokeColor=#b85450;fontStyle=1;fontSize=14;" vertex="1" parent="1">
          <mxGeometry x="180" y="197.88" width="20" height="20" as="geometry" />
        </mxCell>
        <mxCell id="cqIsUIiBQY2y6wm-BXva-229" value="" style="whiteSpace=wrap;html=1;aspect=fixed;fillColor=#f8cecc;strokeColor=#b85450;fontStyle=1;fontSize=14;" vertex="1" parent="1">
          <mxGeometry x="200" y="197.88" width="20" height="20" as="geometry" />
        </mxCell>
        <mxCell id="cqIsUIiBQY2y6wm-BXva-230" value="" style="rounded=0;whiteSpace=wrap;html=1;fontStyle=1;fontSize=14;" vertex="1" parent="1">
          <mxGeometry x="100" y="177.88" width="20" height="20" as="geometry" />
        </mxCell>
        <mxCell id="cqIsUIiBQY2y6wm-BXva-231" value="" style="rounded=0;whiteSpace=wrap;html=1;fontStyle=1;fontSize=14;" vertex="1" parent="1">
          <mxGeometry x="100" y="197.88" width="20" height="20" as="geometry" />
        </mxCell>
        <mxCell id="cqIsUIiBQY2y6wm-BXva-232" value="" style="rounded=0;whiteSpace=wrap;html=1;fontStyle=1;fontSize=14;" vertex="1" parent="1">
          <mxGeometry x="120" y="197.88" width="20" height="20" as="geometry" />
        </mxCell>
        <mxCell id="cqIsUIiBQY2y6wm-BXva-233" value="" style="rounded=0;whiteSpace=wrap;html=1;fontStyle=1;fontSize=14;" vertex="1" parent="1">
          <mxGeometry x="140" y="197.88" width="20" height="20" as="geometry" />
        </mxCell>
        <mxCell id="cqIsUIiBQY2y6wm-BXva-234" value="" style="rounded=0;whiteSpace=wrap;html=1;fontStyle=1;fontSize=14;" vertex="1" parent="1">
          <mxGeometry x="160" y="197.88" width="20" height="20" as="geometry" />
        </mxCell>
        <mxCell id="cqIsUIiBQY2y6wm-BXva-235" value="" style="rounded=0;whiteSpace=wrap;html=1;fontStyle=1;fontSize=14;" vertex="1" parent="1">
          <mxGeometry x="140" y="217.88" width="20" height="20" as="geometry" />
        </mxCell>
        <mxCell id="cqIsUIiBQY2y6wm-BXva-236" value="" style="rounded=0;whiteSpace=wrap;html=1;fontStyle=1;fontSize=14;" vertex="1" parent="1">
          <mxGeometry x="100" y="217.88" width="20" height="20" as="geometry" />
        </mxCell>
        <mxCell id="cqIsUIiBQY2y6wm-BXva-237" value="" style="rounded=0;whiteSpace=wrap;html=1;fontStyle=1;fontSize=14;" vertex="1" parent="1">
          <mxGeometry x="120" y="217.88" width="20" height="20" as="geometry" />
        </mxCell>
        <mxCell id="cqIsUIiBQY2y6wm-BXva-238" value="" style="rounded=0;whiteSpace=wrap;html=1;fontStyle=1;fontSize=14;" vertex="1" parent="1">
          <mxGeometry x="180" y="217.88" width="20" height="20" as="geometry" />
        </mxCell>
        <mxCell id="cqIsUIiBQY2y6wm-BXva-239" value="" style="rounded=0;whiteSpace=wrap;html=1;fontStyle=1;fontSize=14;" vertex="1" parent="1">
          <mxGeometry x="200" y="217.88" width="20" height="20" as="geometry" />
        </mxCell>
        <mxCell id="cqIsUIiBQY2y6wm-BXva-240" value="" style="rounded=0;whiteSpace=wrap;html=1;fontStyle=1;fontSize=14;" vertex="1" parent="1">
          <mxGeometry x="120" y="157.88" width="20" height="20" as="geometry" />
        </mxCell>
        <mxCell id="cqIsUIiBQY2y6wm-BXva-241" value="" style="rounded=0;whiteSpace=wrap;html=1;fontStyle=1;fontSize=14;" vertex="1" parent="1">
          <mxGeometry x="140" y="157.88" width="20" height="20" as="geometry" />
        </mxCell>
        <mxCell id="cqIsUIiBQY2y6wm-BXva-242" value="" style="rounded=0;whiteSpace=wrap;html=1;fontStyle=1;fontSize=14;" vertex="1" parent="1">
          <mxGeometry x="160" y="157.88" width="20" height="20" as="geometry" />
        </mxCell>
        <mxCell id="cqIsUIiBQY2y6wm-BXva-243" value="" style="rounded=0;whiteSpace=wrap;html=1;fontStyle=1;fontSize=14;" vertex="1" parent="1">
          <mxGeometry x="180" y="157.88" width="20" height="20" as="geometry" />
        </mxCell>
        <mxCell id="cqIsUIiBQY2y6wm-BXva-244" value="" style="rounded=0;whiteSpace=wrap;html=1;fontStyle=1;fontSize=14;" vertex="1" parent="1">
          <mxGeometry x="160" y="177.88" width="20" height="20" as="geometry" />
        </mxCell>
        <mxCell id="cqIsUIiBQY2y6wm-BXva-245" value="" style="rounded=0;whiteSpace=wrap;html=1;fontStyle=1;fontSize=14;" vertex="1" parent="1">
          <mxGeometry x="180" y="177.88" width="20" height="20" as="geometry" />
        </mxCell>
        <mxCell id="cqIsUIiBQY2y6wm-BXva-246" value="" style="rounded=0;whiteSpace=wrap;html=1;fontStyle=1;fontSize=14;" vertex="1" parent="1">
          <mxGeometry x="200" y="177.88" width="20" height="20" as="geometry" />
        </mxCell>
        <mxCell id="cqIsUIiBQY2y6wm-BXva-247" value="" style="rounded=0;whiteSpace=wrap;html=1;fontStyle=1;fontSize=14;" vertex="1" parent="1">
          <mxGeometry x="200" y="157.88" width="20" height="20" as="geometry" />
        </mxCell>
        <mxCell id="cqIsUIiBQY2y6wm-BXva-248" value="" style="whiteSpace=wrap;html=1;aspect=fixed;fillColor=#e1d5e7;strokeColor=#9673a6;fontStyle=1;fontSize=14;" vertex="1" parent="1">
          <mxGeometry x="220" y="217.88" width="20" height="20" as="geometry" />
        </mxCell>
        <mxCell id="cqIsUIiBQY2y6wm-BXva-249" value="" style="rounded=0;whiteSpace=wrap;html=1;fontStyle=1;fontSize=14;" vertex="1" parent="1">
          <mxGeometry x="220" y="197.88" width="20" height="20" as="geometry" />
        </mxCell>
        <mxCell id="cqIsUIiBQY2y6wm-BXva-250" value="" style="rounded=0;whiteSpace=wrap;html=1;fontStyle=1;fontSize=14;" vertex="1" parent="1">
          <mxGeometry x="220" y="157.88" width="20" height="20" as="geometry" />
        </mxCell>
        <mxCell id="cqIsUIiBQY2y6wm-BXva-376" style="edgeStyle=orthogonalEdgeStyle;curved=1;rounded=0;orthogonalLoop=1;jettySize=auto;html=1;entryX=0;entryY=0.5;entryDx=0;entryDy=0;exitX=1;exitY=1;exitDx=0;exitDy=0;fontStyle=1;fontSize=14;" edge="1" parent="1" source="cqIsUIiBQY2y6wm-BXva-251" target="cqIsUIiBQY2y6wm-BXva-290">
          <mxGeometry relative="1" as="geometry">
            <Array as="points">
              <mxPoint x="280" y="198" />
              <mxPoint x="280" y="284" />
            </Array>
          </mxGeometry>
        </mxCell>
        <mxCell id="cqIsUIiBQY2y6wm-BXva-251" value="" style="rounded=0;whiteSpace=wrap;html=1;fontStyle=1;fontSize=14;" vertex="1" parent="1">
          <mxGeometry x="220" y="177.88" width="20" height="20" as="geometry" />
        </mxCell>
        <mxCell id="cqIsUIiBQY2y6wm-BXva-252" value="G" style="text;html=1;strokeColor=none;fillColor=none;align=center;verticalAlign=middle;whiteSpace=wrap;rounded=0;fontStyle=1;fontSize=14;" vertex="1" parent="1">
          <mxGeometry x="70" y="350.25" width="40" height="20" as="geometry" />
        </mxCell>
        <mxCell id="cqIsUIiBQY2y6wm-BXva-253" value="T" style="text;html=1;strokeColor=none;fillColor=none;align=center;verticalAlign=middle;whiteSpace=wrap;rounded=0;fontStyle=1;fontSize=14;" vertex="1" parent="1">
          <mxGeometry x="70" y="370.25" width="40" height="20" as="geometry" />
        </mxCell>
        <mxCell id="cqIsUIiBQY2y6wm-BXva-254" value="&lt;div style=&quot;font-size: 14px;&quot;&gt;A&lt;/div&gt;" style="text;html=1;strokeColor=none;fillColor=none;align=center;verticalAlign=middle;whiteSpace=wrap;rounded=0;fontStyle=1;fontSize=14;" vertex="1" parent="1">
          <mxGeometry x="70" y="310.25" width="40" height="20" as="geometry" />
        </mxCell>
        <mxCell id="cqIsUIiBQY2y6wm-BXva-255" value="C" style="text;html=1;strokeColor=none;fillColor=none;align=center;verticalAlign=middle;whiteSpace=wrap;rounded=0;fontStyle=1;fontSize=14;" vertex="1" parent="1">
          <mxGeometry x="70" y="330.25" width="40" height="20" as="geometry" />
        </mxCell>
        <mxCell id="cqIsUIiBQY2y6wm-BXva-256" value="" style="whiteSpace=wrap;html=1;aspect=fixed;fontStyle=1;fontSize=14;" vertex="1" parent="1">
          <mxGeometry x="100" y="310.25" width="20" height="20" as="geometry" />
        </mxCell>
        <mxCell id="cqIsUIiBQY2y6wm-BXva-257" value="" style="whiteSpace=wrap;html=1;aspect=fixed;fontStyle=1;fontSize=14;" vertex="1" parent="1">
          <mxGeometry x="120" y="330.25" width="20" height="20" as="geometry" />
        </mxCell>
        <mxCell id="cqIsUIiBQY2y6wm-BXva-258" value="" style="whiteSpace=wrap;html=1;aspect=fixed;fontStyle=1;fontSize=14;" vertex="1" parent="1">
          <mxGeometry x="120" y="330.25" width="20" height="20" as="geometry" />
        </mxCell>
        <mxCell id="cqIsUIiBQY2y6wm-BXva-259" value="" style="whiteSpace=wrap;html=1;aspect=fixed;fontStyle=1;fontSize=14;" vertex="1" parent="1">
          <mxGeometry x="140" y="330.25" width="20" height="20" as="geometry" />
        </mxCell>
        <mxCell id="cqIsUIiBQY2y6wm-BXva-260" value="" style="whiteSpace=wrap;html=1;aspect=fixed;fontStyle=1;fontSize=14;" vertex="1" parent="1">
          <mxGeometry x="160" y="370.25" width="20" height="20" as="geometry" />
        </mxCell>
        <mxCell id="cqIsUIiBQY2y6wm-BXva-261" value="" style="whiteSpace=wrap;html=1;aspect=fixed;fontStyle=1;fontSize=14;" vertex="1" parent="1">
          <mxGeometry x="180" y="350.25" width="20" height="20" as="geometry" />
        </mxCell>
        <mxCell id="cqIsUIiBQY2y6wm-BXva-262" value="" style="whiteSpace=wrap;html=1;aspect=fixed;fillColor=#f8cecc;strokeColor=#b85450;fontStyle=1;fontSize=14;" vertex="1" parent="1">
          <mxGeometry x="200" y="350.25" width="20" height="20" as="geometry" />
        </mxCell>
        <mxCell id="cqIsUIiBQY2y6wm-BXva-263" value="" style="rounded=0;whiteSpace=wrap;html=1;fontStyle=1;fontSize=14;" vertex="1" parent="1">
          <mxGeometry x="100" y="330.25" width="20" height="20" as="geometry" />
        </mxCell>
        <mxCell id="cqIsUIiBQY2y6wm-BXva-264" value="" style="rounded=0;whiteSpace=wrap;html=1;fontStyle=1;fontSize=14;" vertex="1" parent="1">
          <mxGeometry x="100" y="350.25" width="20" height="20" as="geometry" />
        </mxCell>
        <mxCell id="cqIsUIiBQY2y6wm-BXva-265" value="" style="rounded=0;whiteSpace=wrap;html=1;fontStyle=1;fontSize=14;" vertex="1" parent="1">
          <mxGeometry x="120" y="350.25" width="20" height="20" as="geometry" />
        </mxCell>
        <mxCell id="cqIsUIiBQY2y6wm-BXva-266" value="" style="rounded=0;whiteSpace=wrap;html=1;fillColor=#f8cecc;strokeColor=#b85450;fontStyle=1;fontSize=14;" vertex="1" parent="1">
          <mxGeometry x="140" y="350.25" width="20" height="20" as="geometry" />
        </mxCell>
        <mxCell id="cqIsUIiBQY2y6wm-BXva-267" value="" style="rounded=0;whiteSpace=wrap;html=1;fontStyle=1;fontSize=14;" vertex="1" parent="1">
          <mxGeometry x="160" y="350.25" width="20" height="20" as="geometry" />
        </mxCell>
        <mxCell id="cqIsUIiBQY2y6wm-BXva-268" value="" style="rounded=0;whiteSpace=wrap;html=1;fontStyle=1;fontSize=14;" vertex="1" parent="1">
          <mxGeometry x="140" y="370.25" width="20" height="20" as="geometry" />
        </mxCell>
        <mxCell id="cqIsUIiBQY2y6wm-BXva-269" value="" style="rounded=0;whiteSpace=wrap;html=1;fillColor=#e1d5e7;strokeColor=#9673a6;fontStyle=1;fontSize=14;" vertex="1" parent="1">
          <mxGeometry x="100" y="370.25" width="20" height="20" as="geometry" />
        </mxCell>
        <mxCell id="cqIsUIiBQY2y6wm-BXva-270" value="" style="rounded=0;whiteSpace=wrap;html=1;fillColor=#e1d5e7;strokeColor=#9673a6;fontStyle=1;fontSize=14;" vertex="1" parent="1">
          <mxGeometry x="120" y="370.25" width="20" height="20" as="geometry" />
        </mxCell>
        <mxCell id="cqIsUIiBQY2y6wm-BXva-271" value="" style="rounded=0;whiteSpace=wrap;html=1;fontStyle=1;fontSize=14;" vertex="1" parent="1">
          <mxGeometry x="180" y="370.25" width="20" height="20" as="geometry" />
        </mxCell>
        <mxCell id="cqIsUIiBQY2y6wm-BXva-272" value="" style="rounded=0;whiteSpace=wrap;html=1;fontStyle=1;fontSize=14;" vertex="1" parent="1">
          <mxGeometry x="200" y="370.25" width="20" height="20" as="geometry" />
        </mxCell>
        <mxCell id="cqIsUIiBQY2y6wm-BXva-273" value="" style="rounded=0;whiteSpace=wrap;html=1;fontStyle=1;fontSize=14;" vertex="1" parent="1">
          <mxGeometry x="120" y="310.25" width="20" height="20" as="geometry" />
        </mxCell>
        <mxCell id="cqIsUIiBQY2y6wm-BXva-274" value="" style="rounded=0;whiteSpace=wrap;html=1;fontStyle=1;fontSize=14;" vertex="1" parent="1">
          <mxGeometry x="140" y="310.25" width="20" height="20" as="geometry" />
        </mxCell>
        <mxCell id="cqIsUIiBQY2y6wm-BXva-275" value="" style="rounded=0;whiteSpace=wrap;html=1;fillColor=#dae8fc;strokeColor=#6c8ebf;fontStyle=1;fontSize=14;" vertex="1" parent="1">
          <mxGeometry x="160" y="310.25" width="20" height="20" as="geometry" />
        </mxCell>
        <mxCell id="cqIsUIiBQY2y6wm-BXva-276" value="" style="rounded=0;whiteSpace=wrap;html=1;fillColor=#dae8fc;strokeColor=#6c8ebf;fontStyle=1;fontSize=14;" vertex="1" parent="1">
          <mxGeometry x="180" y="310.25" width="20" height="20" as="geometry" />
        </mxCell>
        <mxCell id="cqIsUIiBQY2y6wm-BXva-277" value="" style="rounded=0;whiteSpace=wrap;html=1;fontStyle=1;fontSize=14;" vertex="1" parent="1">
          <mxGeometry x="160" y="330.25" width="20" height="20" as="geometry" />
        </mxCell>
        <mxCell id="cqIsUIiBQY2y6wm-BXva-278" value="" style="rounded=0;whiteSpace=wrap;html=1;fontStyle=1;fontSize=14;" vertex="1" parent="1">
          <mxGeometry x="180" y="330.25" width="20" height="20" as="geometry" />
        </mxCell>
        <mxCell id="cqIsUIiBQY2y6wm-BXva-279" value="" style="rounded=0;whiteSpace=wrap;html=1;fontStyle=1;fontSize=14;" vertex="1" parent="1">
          <mxGeometry x="200" y="330.25" width="20" height="20" as="geometry" />
        </mxCell>
        <mxCell id="cqIsUIiBQY2y6wm-BXva-280" value="" style="rounded=0;whiteSpace=wrap;html=1;fontStyle=1;fontSize=14;" vertex="1" parent="1">
          <mxGeometry x="200" y="310.25" width="20" height="20" as="geometry" />
        </mxCell>
        <mxCell id="cqIsUIiBQY2y6wm-BXva-281" value="" style="whiteSpace=wrap;html=1;aspect=fixed;fillColor=#e1d5e7;strokeColor=#9673a6;fontStyle=1;fontSize=14;" vertex="1" parent="1">
          <mxGeometry x="220" y="370.25" width="20" height="20" as="geometry" />
        </mxCell>
        <mxCell id="cqIsUIiBQY2y6wm-BXva-282" value="" style="rounded=0;whiteSpace=wrap;html=1;fontStyle=1;fontSize=14;" vertex="1" parent="1">
          <mxGeometry x="220" y="350.25" width="20" height="20" as="geometry" />
        </mxCell>
        <mxCell id="cqIsUIiBQY2y6wm-BXva-283" value="" style="rounded=0;whiteSpace=wrap;html=1;fontStyle=1;fontSize=14;" vertex="1" parent="1">
          <mxGeometry x="220" y="310.25" width="20" height="20" as="geometry" />
        </mxCell>
        <mxCell id="cqIsUIiBQY2y6wm-BXva-378" style="edgeStyle=orthogonalEdgeStyle;curved=1;rounded=0;orthogonalLoop=1;jettySize=auto;html=1;entryX=0;entryY=0.5;entryDx=0;entryDy=0;exitX=1;exitY=1;exitDx=0;exitDy=0;fontStyle=1;fontSize=14;" edge="1" parent="1" source="cqIsUIiBQY2y6wm-BXva-284" target="cqIsUIiBQY2y6wm-BXva-290">
          <mxGeometry relative="1" as="geometry">
            <Array as="points">
              <mxPoint x="280" y="350" />
              <mxPoint x="280" y="284" />
            </Array>
          </mxGeometry>
        </mxCell>
        <mxCell id="cqIsUIiBQY2y6wm-BXva-284" value="" style="rounded=0;whiteSpace=wrap;html=1;fontStyle=1;fontSize=14;" vertex="1" parent="1">
          <mxGeometry x="220" y="330.25" width="20" height="20" as="geometry" />
        </mxCell>
        <mxCell id="cqIsUIiBQY2y6wm-BXva-285" style="edgeStyle=orthogonalEdgeStyle;rounded=0;orthogonalLoop=1;jettySize=auto;html=1;entryX=0;entryY=0.5;entryDx=0;entryDy=0;fontStyle=1;fontSize=14;" edge="1" parent="1">
          <mxGeometry relative="1" as="geometry">
            <mxPoint x="450" y="294.5" as="sourcePoint" />
            <mxPoint x="495" y="294.5" as="targetPoint" />
            <Array as="points">
              <mxPoint x="465" y="294.5" />
              <mxPoint x="465" y="294.5" />
            </Array>
          </mxGeometry>
        </mxCell>
        <mxCell id="cqIsUIiBQY2y6wm-BXva-286" value="&lt;div style=&quot;font-size: 14px;&quot;&gt;CNN layers&lt;/div&gt;" style="text;html=1;strokeColor=none;fillColor=none;align=center;verticalAlign=middle;whiteSpace=wrap;rounded=0;fontStyle=1;fontSize=14;" vertex="1" parent="1">
          <mxGeometry x="260" y="369.5" width="250" height="20" as="geometry" />
        </mxCell>
        <mxCell id="cqIsUIiBQY2y6wm-BXva-287" value="" style="whiteSpace=wrap;html=1;aspect=fixed;fillColor=#dae8fc;strokeColor=#6c8ebf;fontStyle=1;fontSize=14;" vertex="1" parent="1">
          <mxGeometry x="330" y="238.5" width="30" height="30" as="geometry" />
        </mxCell>
        <mxCell id="cqIsUIiBQY2y6wm-BXva-288" value="" style="whiteSpace=wrap;html=1;aspect=fixed;fillColor=#dae8fc;strokeColor=#6c8ebf;fontStyle=1;fontSize=14;" vertex="1" parent="1">
          <mxGeometry x="360" y="238.5" width="30" height="30" as="geometry" />
        </mxCell>
        <mxCell id="cqIsUIiBQY2y6wm-BXva-289" value="" style="whiteSpace=wrap;html=1;aspect=fixed;fillColor=#dae8fc;strokeColor=#6c8ebf;fontStyle=1;fontSize=14;" vertex="1" parent="1">
          <mxGeometry x="390" y="238.5" width="30" height="30" as="geometry" />
        </mxCell>
        <mxCell id="cqIsUIiBQY2y6wm-BXva-290" value="" style="whiteSpace=wrap;html=1;aspect=fixed;fillColor=#dae8fc;strokeColor=#6c8ebf;fontStyle=1;fontSize=14;" vertex="1" parent="1">
          <mxGeometry x="330" y="268.5" width="30" height="30" as="geometry" />
        </mxCell>
        <mxCell id="cqIsUIiBQY2y6wm-BXva-291" value="" style="whiteSpace=wrap;html=1;aspect=fixed;fillColor=#dae8fc;strokeColor=#6c8ebf;fontStyle=1;fontSize=14;" vertex="1" parent="1">
          <mxGeometry x="360" y="268.5" width="30" height="30" as="geometry" />
        </mxCell>
        <mxCell id="cqIsUIiBQY2y6wm-BXva-292" value="" style="whiteSpace=wrap;html=1;aspect=fixed;fillColor=#dae8fc;strokeColor=#6c8ebf;fontStyle=1;fontSize=14;" vertex="1" parent="1">
          <mxGeometry x="390" y="268.5" width="30" height="30" as="geometry" />
        </mxCell>
        <mxCell id="cqIsUIiBQY2y6wm-BXva-293" value="" style="whiteSpace=wrap;html=1;aspect=fixed;fillColor=#dae8fc;strokeColor=#6c8ebf;fontStyle=1;fontSize=14;" vertex="1" parent="1">
          <mxGeometry x="330" y="298.5" width="30" height="30" as="geometry" />
        </mxCell>
        <mxCell id="cqIsUIiBQY2y6wm-BXva-294" value="" style="whiteSpace=wrap;html=1;aspect=fixed;fillColor=#dae8fc;strokeColor=#6c8ebf;fontStyle=1;fontSize=14;" vertex="1" parent="1">
          <mxGeometry x="360" y="298.5" width="30" height="30" as="geometry" />
        </mxCell>
        <mxCell id="cqIsUIiBQY2y6wm-BXva-295" value="" style="whiteSpace=wrap;html=1;aspect=fixed;fillColor=#dae8fc;strokeColor=#6c8ebf;fontStyle=1;fontSize=14;" vertex="1" parent="1">
          <mxGeometry x="390" y="298.5" width="30" height="30" as="geometry" />
        </mxCell>
        <mxCell id="cqIsUIiBQY2y6wm-BXva-296" value="" style="whiteSpace=wrap;html=1;aspect=fixed;fillColor=#d5e8d4;strokeColor=#82b366;fontStyle=1;fontSize=14;" vertex="1" parent="1">
          <mxGeometry x="340" y="248.5" width="30" height="30" as="geometry" />
        </mxCell>
        <mxCell id="cqIsUIiBQY2y6wm-BXva-297" value="" style="whiteSpace=wrap;html=1;aspect=fixed;fillColor=#d5e8d4;strokeColor=#82b366;fontStyle=1;fontSize=14;" vertex="1" parent="1">
          <mxGeometry x="370" y="248.5" width="30" height="30" as="geometry" />
        </mxCell>
        <mxCell id="cqIsUIiBQY2y6wm-BXva-298" value="" style="whiteSpace=wrap;html=1;aspect=fixed;fillColor=#d5e8d4;strokeColor=#82b366;fontStyle=1;fontSize=14;" vertex="1" parent="1">
          <mxGeometry x="400" y="248.5" width="30" height="30" as="geometry" />
        </mxCell>
        <mxCell id="cqIsUIiBQY2y6wm-BXva-299" value="" style="whiteSpace=wrap;html=1;aspect=fixed;fillColor=#d5e8d4;strokeColor=#82b366;fontStyle=1;fontSize=14;" vertex="1" parent="1">
          <mxGeometry x="340" y="278.5" width="30" height="30" as="geometry" />
        </mxCell>
        <mxCell id="cqIsUIiBQY2y6wm-BXva-300" value="" style="whiteSpace=wrap;html=1;aspect=fixed;fillColor=#d5e8d4;strokeColor=#82b366;fontStyle=1;fontSize=14;" vertex="1" parent="1">
          <mxGeometry x="370" y="278.5" width="30" height="30" as="geometry" />
        </mxCell>
        <mxCell id="cqIsUIiBQY2y6wm-BXva-301" value="" style="whiteSpace=wrap;html=1;aspect=fixed;fillColor=#d5e8d4;strokeColor=#82b366;fontStyle=1;fontSize=14;" vertex="1" parent="1">
          <mxGeometry x="400" y="278.5" width="30" height="30" as="geometry" />
        </mxCell>
        <mxCell id="cqIsUIiBQY2y6wm-BXva-302" value="" style="whiteSpace=wrap;html=1;aspect=fixed;fillColor=#d5e8d4;strokeColor=#82b366;fontStyle=1;fontSize=14;" vertex="1" parent="1">
          <mxGeometry x="340" y="308.5" width="30" height="30" as="geometry" />
        </mxCell>
        <mxCell id="cqIsUIiBQY2y6wm-BXva-303" value="" style="whiteSpace=wrap;html=1;aspect=fixed;fillColor=#d5e8d4;strokeColor=#82b366;fontStyle=1;fontSize=14;" vertex="1" parent="1">
          <mxGeometry x="370" y="308.5" width="30" height="30" as="geometry" />
        </mxCell>
        <mxCell id="cqIsUIiBQY2y6wm-BXva-304" value="" style="whiteSpace=wrap;html=1;aspect=fixed;fillColor=#d5e8d4;strokeColor=#82b366;fontStyle=1;fontSize=14;" vertex="1" parent="1">
          <mxGeometry x="400" y="308.5" width="30" height="30" as="geometry" />
        </mxCell>
        <mxCell id="cqIsUIiBQY2y6wm-BXva-305" value="" style="whiteSpace=wrap;html=1;aspect=fixed;fillColor=#ffe6cc;strokeColor=#d79b00;fontStyle=1;fontSize=14;" vertex="1" parent="1">
          <mxGeometry x="350" y="258.5" width="30" height="30" as="geometry" />
        </mxCell>
        <mxCell id="cqIsUIiBQY2y6wm-BXva-306" value="" style="whiteSpace=wrap;html=1;aspect=fixed;fillColor=#ffe6cc;strokeColor=#d79b00;fontStyle=1;fontSize=14;" vertex="1" parent="1">
          <mxGeometry x="380" y="258.5" width="30" height="30" as="geometry" />
        </mxCell>
        <mxCell id="cqIsUIiBQY2y6wm-BXva-307" value="" style="whiteSpace=wrap;html=1;aspect=fixed;fillColor=#ffe6cc;strokeColor=#d79b00;fontStyle=1;fontSize=14;" vertex="1" parent="1">
          <mxGeometry x="410" y="258.5" width="30" height="30" as="geometry" />
        </mxCell>
        <mxCell id="cqIsUIiBQY2y6wm-BXva-308" value="" style="whiteSpace=wrap;html=1;aspect=fixed;fillColor=#ffe6cc;strokeColor=#d79b00;fontStyle=1;fontSize=14;" vertex="1" parent="1">
          <mxGeometry x="350" y="288.5" width="30" height="30" as="geometry" />
        </mxCell>
        <mxCell id="cqIsUIiBQY2y6wm-BXva-309" value="" style="whiteSpace=wrap;html=1;aspect=fixed;fillColor=#ffe6cc;strokeColor=#d79b00;fontStyle=1;fontSize=14;" vertex="1" parent="1">
          <mxGeometry x="380" y="288.5" width="30" height="30" as="geometry" />
        </mxCell>
        <mxCell id="cqIsUIiBQY2y6wm-BXva-310" value="" style="whiteSpace=wrap;html=1;aspect=fixed;fillColor=#ffe6cc;strokeColor=#d79b00;fontStyle=1;fontSize=14;" vertex="1" parent="1">
          <mxGeometry x="410" y="288.5" width="30" height="30" as="geometry" />
        </mxCell>
        <mxCell id="cqIsUIiBQY2y6wm-BXva-311" value="" style="whiteSpace=wrap;html=1;aspect=fixed;fillColor=#ffe6cc;strokeColor=#d79b00;fontStyle=1;fontSize=14;" vertex="1" parent="1">
          <mxGeometry x="350" y="318.5" width="30" height="30" as="geometry" />
        </mxCell>
        <mxCell id="cqIsUIiBQY2y6wm-BXva-312" value="" style="whiteSpace=wrap;html=1;aspect=fixed;fillColor=#ffe6cc;strokeColor=#d79b00;fontStyle=1;fontSize=14;" vertex="1" parent="1">
          <mxGeometry x="380" y="318.5" width="30" height="30" as="geometry" />
        </mxCell>
        <mxCell id="cqIsUIiBQY2y6wm-BXva-313" value="" style="whiteSpace=wrap;html=1;aspect=fixed;fillColor=#ffe6cc;strokeColor=#d79b00;fontStyle=1;fontSize=14;" vertex="1" parent="1">
          <mxGeometry x="410" y="318.5" width="30" height="30" as="geometry" />
        </mxCell>
        <mxCell id="cqIsUIiBQY2y6wm-BXva-314" value="" style="whiteSpace=wrap;html=1;aspect=fixed;fillColor=#f8cecc;strokeColor=#b85450;fontStyle=1;fontSize=14;" vertex="1" parent="1">
          <mxGeometry x="360" y="268.5" width="30" height="30" as="geometry" />
        </mxCell>
        <mxCell id="cqIsUIiBQY2y6wm-BXva-315" value="" style="whiteSpace=wrap;html=1;aspect=fixed;fillColor=#f8cecc;strokeColor=#b85450;fontStyle=1;fontSize=14;" vertex="1" parent="1">
          <mxGeometry x="390" y="268.5" width="30" height="30" as="geometry" />
        </mxCell>
        <mxCell id="cqIsUIiBQY2y6wm-BXva-316" value="" style="whiteSpace=wrap;html=1;aspect=fixed;fillColor=#f8cecc;strokeColor=#b85450;fontStyle=1;fontSize=14;" vertex="1" parent="1">
          <mxGeometry x="420" y="268.5" width="30" height="30" as="geometry" />
        </mxCell>
        <mxCell id="cqIsUIiBQY2y6wm-BXva-317" value="" style="whiteSpace=wrap;html=1;aspect=fixed;fillColor=#f8cecc;strokeColor=#b85450;fontStyle=1;fontSize=14;" vertex="1" parent="1">
          <mxGeometry x="360" y="298.5" width="30" height="30" as="geometry" />
        </mxCell>
        <mxCell id="cqIsUIiBQY2y6wm-BXva-318" value="" style="whiteSpace=wrap;html=1;aspect=fixed;fillColor=#f8cecc;strokeColor=#b85450;fontStyle=1;fontSize=14;" vertex="1" parent="1">
          <mxGeometry x="390" y="298.5" width="30" height="30" as="geometry" />
        </mxCell>
        <mxCell id="cqIsUIiBQY2y6wm-BXva-319" value="" style="whiteSpace=wrap;html=1;aspect=fixed;fillColor=#f8cecc;strokeColor=#b85450;fontStyle=1;fontSize=14;" vertex="1" parent="1">
          <mxGeometry x="420" y="298.5" width="30" height="30" as="geometry" />
        </mxCell>
        <mxCell id="cqIsUIiBQY2y6wm-BXva-320" value="" style="whiteSpace=wrap;html=1;aspect=fixed;fillColor=#f8cecc;strokeColor=#b85450;fontStyle=1;fontSize=14;" vertex="1" parent="1">
          <mxGeometry x="360" y="328.5" width="30" height="30" as="geometry" />
        </mxCell>
        <mxCell id="cqIsUIiBQY2y6wm-BXva-321" value="" style="whiteSpace=wrap;html=1;aspect=fixed;fillColor=#f8cecc;strokeColor=#b85450;fontStyle=1;fontSize=14;" vertex="1" parent="1">
          <mxGeometry x="390" y="328.5" width="30" height="30" as="geometry" />
        </mxCell>
        <mxCell id="cqIsUIiBQY2y6wm-BXva-322" value="" style="whiteSpace=wrap;html=1;aspect=fixed;fillColor=#f8cecc;strokeColor=#b85450;fontStyle=1;fontSize=14;" vertex="1" parent="1">
          <mxGeometry x="420" y="328.5" width="30" height="30" as="geometry" />
        </mxCell>
        <mxCell id="cqIsUIiBQY2y6wm-BXva-379" value="Dense layers" style="text;html=1;strokeColor=none;fillColor=none;align=center;verticalAlign=middle;whiteSpace=wrap;rounded=0;fontStyle=1;fontSize=14;" vertex="1" parent="1">
          <mxGeometry x="589.75" y="407" width="90" height="20" as="geometry" />
        </mxCell>
        <mxCell id="cqIsUIiBQY2y6wm-BXva-380" value="Flatten" style="text;html=1;strokeColor=none;fillColor=none;align=center;verticalAlign=middle;whiteSpace=wrap;rounded=0;fontStyle=1;fontSize=14;" vertex="1" parent="1">
          <mxGeometry x="504.25" y="407" width="21" height="20" as="geometry" />
        </mxCell>
        <mxCell id="cqIsUIiBQY2y6wm-BXva-381" style="edgeStyle=none;rounded=1;jumpSize=20;orthogonalLoop=1;jettySize=auto;html=1;entryX=0;entryY=0.5;entryDx=0;entryDy=0;strokeWidth=1;fontStyle=1;fontSize=14;" edge="1" parent="1" source="cqIsUIiBQY2y6wm-BXva-383" target="cqIsUIiBQY2y6wm-BXva-408">
          <mxGeometry relative="1" as="geometry" />
        </mxCell>
        <mxCell id="cqIsUIiBQY2y6wm-BXva-382" style="edgeStyle=none;rounded=0;orthogonalLoop=1;jettySize=auto;html=1;entryX=0;entryY=0.5;entryDx=0;entryDy=0;fontStyle=1;fontSize=14;" edge="1" parent="1" source="cqIsUIiBQY2y6wm-BXva-383" target="cqIsUIiBQY2y6wm-BXva-396">
          <mxGeometry relative="1" as="geometry" />
        </mxCell>
        <mxCell id="cqIsUIiBQY2y6wm-BXva-383" value="" style="ellipse;whiteSpace=wrap;html=1;aspect=fixed;fontStyle=1;fontSize=14;" vertex="1" parent="1">
          <mxGeometry x="577" y="200.25" width="30" height="30" as="geometry" />
        </mxCell>
        <mxCell id="cqIsUIiBQY2y6wm-BXva-384" style="edgeStyle=none;rounded=1;jumpSize=20;orthogonalLoop=1;jettySize=auto;html=1;entryX=0;entryY=0.5;entryDx=0;entryDy=0;strokeWidth=1;fontStyle=1;fontSize=14;" edge="1" parent="1" source="cqIsUIiBQY2y6wm-BXva-385" target="cqIsUIiBQY2y6wm-BXva-405">
          <mxGeometry relative="1" as="geometry" />
        </mxCell>
        <mxCell id="cqIsUIiBQY2y6wm-BXva-385" value="" style="ellipse;whiteSpace=wrap;html=1;aspect=fixed;fontStyle=1;fontSize=14;" vertex="1" parent="1">
          <mxGeometry x="577" y="240.25" width="30" height="30" as="geometry" />
        </mxCell>
        <mxCell id="cqIsUIiBQY2y6wm-BXva-386" style="edgeStyle=none;rounded=1;jumpSize=20;orthogonalLoop=1;jettySize=auto;html=1;entryX=0;entryY=0.5;entryDx=0;entryDy=0;strokeWidth=1;fontStyle=1;fontSize=14;" edge="1" parent="1" source="cqIsUIiBQY2y6wm-BXva-387" target="cqIsUIiBQY2y6wm-BXva-396">
          <mxGeometry relative="1" as="geometry" />
        </mxCell>
        <mxCell id="cqIsUIiBQY2y6wm-BXva-387" value="" style="ellipse;whiteSpace=wrap;html=1;aspect=fixed;fontStyle=1;fontSize=14;" vertex="1" parent="1">
          <mxGeometry x="577" y="280.25" width="30" height="30" as="geometry" />
        </mxCell>
        <mxCell id="cqIsUIiBQY2y6wm-BXva-388" style="edgeStyle=none;rounded=0;orthogonalLoop=1;jettySize=auto;html=1;entryX=0;entryY=0.5;entryDx=0;entryDy=0;fontStyle=1;fontSize=14;" edge="1" parent="1" source="cqIsUIiBQY2y6wm-BXva-390" target="cqIsUIiBQY2y6wm-BXva-402">
          <mxGeometry relative="1" as="geometry" />
        </mxCell>
        <mxCell id="cqIsUIiBQY2y6wm-BXva-389" style="edgeStyle=none;rounded=0;orthogonalLoop=1;jettySize=auto;html=1;entryX=0;entryY=0.5;entryDx=0;entryDy=0;fontStyle=1;fontSize=14;" edge="1" parent="1" source="cqIsUIiBQY2y6wm-BXva-390" target="cqIsUIiBQY2y6wm-BXva-408">
          <mxGeometry relative="1" as="geometry" />
        </mxCell>
        <mxCell id="cqIsUIiBQY2y6wm-BXva-390" value="" style="ellipse;whiteSpace=wrap;html=1;aspect=fixed;fontStyle=1;fontSize=14;" vertex="1" parent="1">
          <mxGeometry x="577" y="320.25" width="30" height="30" as="geometry" />
        </mxCell>
        <mxCell id="cqIsUIiBQY2y6wm-BXva-391" style="edgeStyle=none;rounded=1;jumpSize=20;orthogonalLoop=1;jettySize=auto;html=1;entryX=0;entryY=0.5;entryDx=0;entryDy=0;strokeWidth=1;fontStyle=1;fontSize=14;" edge="1" parent="1" source="cqIsUIiBQY2y6wm-BXva-393" target="cqIsUIiBQY2y6wm-BXva-399">
          <mxGeometry relative="1" as="geometry" />
        </mxCell>
        <mxCell id="cqIsUIiBQY2y6wm-BXva-392" style="edgeStyle=none;rounded=1;jumpSize=20;orthogonalLoop=1;jettySize=auto;html=1;entryX=0;entryY=0.5;entryDx=0;entryDy=0;strokeWidth=1;fontStyle=1;fontSize=14;" edge="1" parent="1" source="cqIsUIiBQY2y6wm-BXva-393" target="cqIsUIiBQY2y6wm-BXva-408">
          <mxGeometry relative="1" as="geometry" />
        </mxCell>
        <mxCell id="cqIsUIiBQY2y6wm-BXva-393" value="" style="ellipse;whiteSpace=wrap;html=1;aspect=fixed;fontStyle=1;fontSize=14;" vertex="1" parent="1">
          <mxGeometry x="577" y="360.25" width="30" height="30" as="geometry" />
        </mxCell>
        <mxCell id="cqIsUIiBQY2y6wm-BXva-394" style="edgeStyle=none;rounded=1;jumpSize=20;orthogonalLoop=1;jettySize=auto;html=1;entryX=0;entryY=0.5;entryDx=0;entryDy=0;strokeWidth=1;fontStyle=1;fontSize=14;" edge="1" parent="1" source="cqIsUIiBQY2y6wm-BXva-396" target="cqIsUIiBQY2y6wm-BXva-411">
          <mxGeometry relative="1" as="geometry" />
        </mxCell>
        <mxCell id="cqIsUIiBQY2y6wm-BXva-395" style="edgeStyle=none;rounded=1;jumpSize=20;orthogonalLoop=1;jettySize=auto;html=1;strokeWidth=1;entryX=-0.001;entryY=0.557;entryDx=0;entryDy=0;entryPerimeter=0;fontStyle=1;fontSize=14;" edge="1" parent="1" source="cqIsUIiBQY2y6wm-BXva-396" target="cqIsUIiBQY2y6wm-BXva-410">
          <mxGeometry relative="1" as="geometry">
            <mxPoint x="757" y="295.2500000000001" as="targetPoint" />
          </mxGeometry>
        </mxCell>
        <mxCell id="cqIsUIiBQY2y6wm-BXva-396" value="" style="ellipse;whiteSpace=wrap;html=1;aspect=fixed;fontStyle=1;fontSize=14;" vertex="1" parent="1">
          <mxGeometry x="657" y="200.25" width="30" height="30" as="geometry" />
        </mxCell>
        <mxCell id="cqIsUIiBQY2y6wm-BXva-397" style="edgeStyle=none;rounded=1;jumpSize=20;orthogonalLoop=1;jettySize=auto;html=1;entryX=0;entryY=0.5;entryDx=0;entryDy=0;strokeWidth=1;fontStyle=1;fontSize=14;" edge="1" parent="1" source="cqIsUIiBQY2y6wm-BXva-399" target="cqIsUIiBQY2y6wm-BXva-410">
          <mxGeometry relative="1" as="geometry" />
        </mxCell>
        <mxCell id="cqIsUIiBQY2y6wm-BXva-398" style="edgeStyle=none;rounded=1;jumpSize=20;orthogonalLoop=1;jettySize=auto;html=1;strokeWidth=1;entryX=-0.057;entryY=0.483;entryDx=0;entryDy=0;entryPerimeter=0;fontStyle=1;fontSize=14;" edge="1" parent="1" source="cqIsUIiBQY2y6wm-BXva-399" target="cqIsUIiBQY2y6wm-BXva-411">
          <mxGeometry relative="1" as="geometry">
            <mxPoint x="767" y="335.25" as="targetPoint" />
          </mxGeometry>
        </mxCell>
        <mxCell id="cqIsUIiBQY2y6wm-BXva-399" value="" style="ellipse;whiteSpace=wrap;html=1;aspect=fixed;fontStyle=1;fontSize=14;" vertex="1" parent="1">
          <mxGeometry x="657" y="240.25" width="30" height="30" as="geometry" />
        </mxCell>
        <mxCell id="cqIsUIiBQY2y6wm-BXva-400" style="edgeStyle=none;rounded=1;jumpSize=20;orthogonalLoop=1;jettySize=auto;html=1;entryX=0;entryY=0.5;entryDx=0;entryDy=0;strokeWidth=1;fontStyle=1;fontSize=14;" edge="1" parent="1" source="cqIsUIiBQY2y6wm-BXva-402" target="cqIsUIiBQY2y6wm-BXva-411">
          <mxGeometry relative="1" as="geometry" />
        </mxCell>
        <mxCell id="cqIsUIiBQY2y6wm-BXva-401" style="edgeStyle=none;rounded=1;jumpSize=20;orthogonalLoop=1;jettySize=auto;html=1;strokeWidth=1;entryX=0;entryY=0.5;entryDx=0;entryDy=0;fontStyle=1;fontSize=14;" edge="1" parent="1" source="cqIsUIiBQY2y6wm-BXva-402" target="cqIsUIiBQY2y6wm-BXva-410">
          <mxGeometry relative="1" as="geometry">
            <mxPoint x="767" y="295.25" as="targetPoint" />
          </mxGeometry>
        </mxCell>
        <mxCell id="cqIsUIiBQY2y6wm-BXva-402" value="" style="ellipse;whiteSpace=wrap;html=1;aspect=fixed;fontStyle=1;fontSize=14;" vertex="1" parent="1">
          <mxGeometry x="657" y="280.25" width="30" height="30" as="geometry" />
        </mxCell>
        <mxCell id="cqIsUIiBQY2y6wm-BXva-403" style="edgeStyle=none;rounded=1;jumpSize=20;orthogonalLoop=1;jettySize=auto;html=1;entryX=0;entryY=0.5;entryDx=0;entryDy=0;strokeWidth=1;fontStyle=1;fontSize=14;" edge="1" parent="1" source="cqIsUIiBQY2y6wm-BXva-405" target="cqIsUIiBQY2y6wm-BXva-410">
          <mxGeometry relative="1" as="geometry" />
        </mxCell>
        <mxCell id="cqIsUIiBQY2y6wm-BXva-404" style="edgeStyle=none;rounded=1;jumpSize=20;orthogonalLoop=1;jettySize=auto;html=1;strokeWidth=1;entryX=0;entryY=0.5;entryDx=0;entryDy=0;fontStyle=1;fontSize=14;" edge="1" parent="1" source="cqIsUIiBQY2y6wm-BXva-405" target="cqIsUIiBQY2y6wm-BXva-411">
          <mxGeometry relative="1" as="geometry">
            <mxPoint x="757" y="335.2500000000001" as="targetPoint" />
          </mxGeometry>
        </mxCell>
        <mxCell id="cqIsUIiBQY2y6wm-BXva-405" value="" style="ellipse;whiteSpace=wrap;html=1;aspect=fixed;fontStyle=1;fontSize=14;" vertex="1" parent="1">
          <mxGeometry x="657" y="320.25" width="30" height="30" as="geometry" />
        </mxCell>
        <mxCell id="cqIsUIiBQY2y6wm-BXva-406" style="edgeStyle=none;rounded=1;jumpSize=20;orthogonalLoop=1;jettySize=auto;html=1;strokeWidth=1;entryX=-0.05;entryY=0.538;entryDx=0;entryDy=0;entryPerimeter=0;fontStyle=1;fontSize=14;" edge="1" parent="1" source="cqIsUIiBQY2y6wm-BXva-408" target="cqIsUIiBQY2y6wm-BXva-411">
          <mxGeometry relative="1" as="geometry">
            <mxPoint x="767" y="335.25" as="targetPoint" />
          </mxGeometry>
        </mxCell>
        <mxCell id="cqIsUIiBQY2y6wm-BXva-407" style="edgeStyle=none;rounded=1;jumpSize=20;orthogonalLoop=1;jettySize=auto;html=1;strokeWidth=1;entryX=0;entryY=0.5;entryDx=0;entryDy=0;fontStyle=1;fontSize=14;" edge="1" parent="1" source="cqIsUIiBQY2y6wm-BXva-408" target="cqIsUIiBQY2y6wm-BXva-410">
          <mxGeometry relative="1" as="geometry">
            <mxPoint x="757" y="295.2500000000001" as="targetPoint" />
          </mxGeometry>
        </mxCell>
        <mxCell id="cqIsUIiBQY2y6wm-BXva-408" value="" style="ellipse;whiteSpace=wrap;html=1;aspect=fixed;fontStyle=1;fontSize=14;" vertex="1" parent="1">
          <mxGeometry x="657" y="360.25" width="30" height="30" as="geometry" />
        </mxCell>
        <mxCell id="cqIsUIiBQY2y6wm-BXva-409" value="&lt;div style=&quot;font-size: 14px;&quot;&gt;Output&lt;/div&gt;" style="text;html=1;strokeColor=none;fillColor=none;align=center;verticalAlign=middle;whiteSpace=wrap;rounded=0;fontStyle=1;fontSize=14;" vertex="1" parent="1">
          <mxGeometry x="770.5" y="407" width="22.5" height="20" as="geometry" />
        </mxCell>
        <mxCell id="cqIsUIiBQY2y6wm-BXva-410" value="" style="ellipse;whiteSpace=wrap;html=1;aspect=fixed;fillColor=#dae8fc;strokeColor=#6c8ebf;fontStyle=1;fontSize=14;" vertex="1" parent="1">
          <mxGeometry x="763" y="258.25" width="30" height="30" as="geometry" />
        </mxCell>
        <mxCell id="cqIsUIiBQY2y6wm-BXva-411" value="" style="ellipse;whiteSpace=wrap;html=1;aspect=fixed;fillColor=#d5e8d4;strokeColor=#82b366;fontStyle=1;fontSize=14;" vertex="1" parent="1">
          <mxGeometry x="763" y="298.25" width="30" height="30" as="geometry" />
        </mxCell>
        <mxCell id="cqIsUIiBQY2y6wm-BXva-412" style="rounded=0;orthogonalLoop=1;jettySize=auto;html=1;entryX=0;entryY=0.5;entryDx=0;entryDy=0;fontStyle=1;fontSize=14;" edge="1" parent="1" source="cqIsUIiBQY2y6wm-BXva-413">
          <mxGeometry relative="1" as="geometry">
            <mxPoint x="577.0000000000055" y="295.25" as="targetPoint" />
          </mxGeometry>
        </mxCell>
        <mxCell id="cqIsUIiBQY2y6wm-BXva-413" value="" style="rounded=1;whiteSpace=wrap;html=1;shadow=1;glass=0;sketch=1;fontStyle=1;fontSize=14;" vertex="1" parent="1">
          <mxGeometry x="496" y="199.75" width="30" height="190" as="geometry" />
        </mxCell>
        <mxCell id="cqIsUIiBQY2y6wm-BXva-414" value="" style="endArrow=classic;html=1;entryX=0;entryY=0.5;entryDx=0;entryDy=0;exitX=0.989;exitY=0.292;exitDx=0;exitDy=0;exitPerimeter=0;fontStyle=1;fontSize=14;" edge="1" parent="1" source="cqIsUIiBQY2y6wm-BXva-413">
          <mxGeometry width="50" height="50" relative="1" as="geometry">
            <mxPoint x="527" y="308.25" as="sourcePoint" />
            <mxPoint x="577.0000000000055" y="255.25" as="targetPoint" />
          </mxGeometry>
        </mxCell>
        <mxCell id="cqIsUIiBQY2y6wm-BXva-415" value="" style="endArrow=classic;html=1;entryX=0;entryY=0.5;entryDx=0;entryDy=0;exitX=0.989;exitY=0.292;exitDx=0;exitDy=0;exitPerimeter=0;fontStyle=1;fontSize=14;" edge="1" parent="1">
          <mxGeometry width="50" height="50" relative="1" as="geometry">
            <mxPoint x="526" y="215.1500000000001" as="sourcePoint" />
            <mxPoint x="577.3299999999949" y="215.17000000000007" as="targetPoint" />
          </mxGeometry>
        </mxCell>
        <mxCell id="cqIsUIiBQY2y6wm-BXva-416" value="" style="endArrow=classic;html=1;entryX=0;entryY=0.5;entryDx=0;entryDy=0;exitX=0.989;exitY=0.292;exitDx=0;exitDy=0;exitPerimeter=0;fontStyle=1;fontSize=14;" edge="1" parent="1">
          <mxGeometry width="50" height="50" relative="1" as="geometry">
            <mxPoint x="526" y="335.1500000000001" as="sourcePoint" />
            <mxPoint x="577.3299999999949" y="335.1700000000001" as="targetPoint" />
          </mxGeometry>
        </mxCell>
        <mxCell id="cqIsUIiBQY2y6wm-BXva-417" value="" style="endArrow=classic;html=1;entryX=0;entryY=0.5;entryDx=0;entryDy=0;exitX=0.989;exitY=0.292;exitDx=0;exitDy=0;exitPerimeter=0;fontStyle=1;fontSize=14;" edge="1" parent="1">
          <mxGeometry width="50" height="50" relative="1" as="geometry">
            <mxPoint x="526" y="375.1500000000001" as="sourcePoint" />
            <mxPoint x="577.3299999999949" y="375.1700000000001" as="targetPoint" />
          </mxGeometry>
        </mxCell>
      </root>
    </mxGraphModel>
  </diagram>
</mxfile>
